<?xml version="1.0" standalone="no"?>
<!DOCTYPE svg PUBLIC "-//W3C//DTD SVG 20010904//EN"
 "http://www.w3.org/TR/2001/REC-SVG-20010904/DTD/svg10.dtd">
<svg version="1.0" xmlns="http://www.w3.org/2000/svg"
 width="150.000000pt" height="150.000000pt" viewBox="0 0 150.000000 150.000000"
 preserveAspectRatio="xMidYMid meet">

<g transform="translate(0.000000,150.000000) scale(0.100000,-0.100000)"
fill="#0d6efd" stroke="none">
<path d="M312 1187 l-312 -312 0 -438 0 -437 235 0 235 0 0 175 c0 96 3 175 8
175 4 0 86 -79 182 -175 l175 -175 312 0 313 0 0 443 0 442 -308 308 -307 307
-110 0 -110 0 -313 -313z m683 -562 l0 -260 -262 -3 -263 -2 0 265 0 265 263
-2 262 -3 0 -260z"/>
</g>
</svg>
